<svg width="21" height="21" viewBox="0 0 21 21" fill="none" xmlns="http://www.w3.org/2000/svg">
<path d="M13.9483 15.8046H19.3793L17.8532 14.3189C17.6482 14.1193 17.4857 13.8824 17.3748 13.6216C17.2639 13.3609 17.2069 13.0815 17.2069 12.7993V9.45977C17.2071 8.14738 16.7893 6.86721 16.0112 5.79551C15.2331 4.72382 14.1329 3.9133 12.8621 3.47554V3.11494C12.8621 2.55402 12.6332 2.01608 12.2258 1.61945C11.8184 1.22282 11.2658 1 10.6897 1C10.1135 1 9.56093 1.22282 9.15353 1.61945C8.74612 2.01608 8.51724 2.55402 8.51724 3.11494V3.47554C5.98638 4.3469 4.17241 6.69766 4.17241 9.45977V12.8003C4.17241 13.3692 3.93997 13.916 3.52612 14.3189L2 15.8046H7.43103M13.9483 15.8046H7.43103M13.9483 15.8046V16.8621C13.9483 17.7034 13.605 18.5104 12.9938 19.1053C12.3827 19.7002 11.5539 20.0345 10.6897 20.0345C9.82542 20.0345 8.99657 19.7002 8.38546 19.1053C7.77435 18.5104 7.43103 17.7034 7.43103 16.8621V15.8046" stroke="#93A3B4" stroke-width="1.8" stroke-linecap="round" stroke-linejoin="round"/>
<circle cx="16" cy="4" r="4" fill="#EC994B"/>
</svg>
