<svg width="28" height="25" viewBox="0 0 28 25" fill="none" xmlns="http://www.w3.org/2000/svg">
<path d="M27.5 20.8818C27.5 21.638 26.8867 22.2499 26.1319 22.2499H15.1181C14.7553 22.2499 14.4073 22.1058 14.1507 21.8492C13.8941 21.5926 13.75 21.2446 13.75 20.8818C13.75 20.5189 13.8941 20.171 14.1507 19.9144C14.4073 19.6578 14.7553 19.5137 15.1181 19.5137H26.1319C26.8881 19.5137 27.5 20.1255 27.5 20.8818Z" fill="#93A3B4"/>
<path d="M27.5 12.6248C27.5 13.3811 26.8867 13.993 26.1319 13.993H1.36812C1.00528 13.993 0.657288 13.8488 0.400715 13.5922C0.144141 13.3357 0 12.9877 0 12.6248C0 12.262 0.144141 11.914 0.400715 11.6574C0.657288 11.4009 1.00528 11.2567 1.36812 11.2567H26.1319C26.8881 11.2567 27.5 11.87 27.5 12.6248Z" fill="#93A3B4"/>
<path d="M26.1319 5.73625C26.4947 5.73625 26.8427 5.59211 27.0993 5.33554C27.3559 5.07896 27.5 4.73097 27.5 4.36812C27.5 4.00528 27.3559 3.65729 27.0993 3.40071C26.8427 3.14414 26.4947 3 26.1319 3H9.61812C9.43846 3 9.26056 3.03539 9.09457 3.10414C8.92858 3.1729 8.77776 3.27367 8.65071 3.40071C8.52367 3.52776 8.4229 3.67858 8.35414 3.84457C8.28539 4.01056 8.25 4.18846 8.25 4.36812C8.25 4.54779 8.28539 4.7257 8.35414 4.89168C8.4229 5.05767 8.52367 5.20849 8.65071 5.33554C8.77776 5.46258 8.92858 5.56335 9.09457 5.63211C9.26056 5.70086 9.43846 5.73625 9.61812 5.73625H26.1319Z" fill="#93A3B4"/>
</svg>
