<svg width="24" height="6" viewBox="0 0 24 6" fill="none" xmlns="http://www.w3.org/2000/svg">
<path d="M6 3C6 3.79565 5.68393 4.55871 5.12132 5.12132C4.55871 5.68393 3.79565 6 3 6C2.20435 6 1.44129 5.68393 0.87868 5.12132C0.31607 4.55871 0 3.79565 0 3C0 2.20435 0.31607 1.44129 0.87868 0.87868C1.44129 0.316071 2.20435 0 3 0C3.79565 0 4.55871 0.316071 5.12132 0.87868C5.68393 1.44129 6 2.20435 6 3ZM15 3C15 3.79565 14.6839 4.55871 14.1213 5.12132C13.5587 5.68393 12.7956 6 12 6C11.2044 6 10.4413 5.68393 9.87868 5.12132C9.31607 4.55871 9 3.79565 9 3C9 2.20435 9.31607 1.44129 9.87868 0.87868C10.4413 0.316071 11.2044 0 12 0C12.7956 0 13.5587 0.316071 14.1213 0.87868C14.6839 1.44129 15 2.20435 15 3ZM21 6C21.7956 6 22.5587 5.68393 23.1213 5.12132C23.6839 4.55871 24 3.79565 24 3C24 2.20435 23.6839 1.44129 23.1213 0.87868C22.5587 0.316071 21.7956 0 21 0C20.2044 0 19.4413 0.316071 18.8787 0.87868C18.3161 1.44129 18 2.20435 18 3C18 3.79565 18.3161 4.55871 18.8787 5.12132C19.4413 5.68393 20.2044 6 21 6Z" fill="#46474B"/>
</svg>
